Coordinates
version=1
nRows=65
nColumns=12
inDegrees=yes

Units are S.I. units (second, meters, Newtons, ...)
Angles are in degrees

endheader
time	SC_y	SC_z	SC_x	AC_y	AC_z	AC_x	GH_y	GH_z	GH_yy	EL_x	PS_y
       0.0              -23.85          38.47          27.51          65.12         -14.79          6.842         -137.0          3.188         -65.92          126.5          101.6
   0.02375              -23.85          38.47          27.51          65.12         -14.79          6.842         -137.0          3.189         -65.92          126.5          101.6
   0.04749              -23.86          38.47          27.51          65.11         -14.79          6.842         -137.0           3.19         -65.93          126.5          101.6
   0.07124              -23.86          38.46          27.52          65.11         -14.79          6.842         -137.0          3.191         -65.94          126.5          101.6
   0.09498              -23.86          38.46          27.52           65.1         -14.78          6.842         -137.0          3.192         -65.95          126.4          101.6
    0.1187              -23.87          38.46          27.53           65.1         -14.78          6.842         -137.0          3.193         -65.96          126.4          101.6
    0.1425              -23.87          38.46          27.53          65.09         -14.78          6.841         -137.0          3.194         -65.96          126.4          101.6
    0.1662              -23.87          38.45          27.54          65.08         -14.78          6.841         -137.0          3.196         -65.97          126.4          101.6
      0.19              -23.88          38.45          27.54          65.08         -14.77          6.841         -137.0          3.197         -65.98          126.4          101.7
    0.2137              -23.88          38.45          27.55          65.07         -14.77          6.841         -137.0          3.198          -66.0          126.4          101.7
    0.2375              -23.88          38.44          27.55          65.06         -14.77          6.841         -137.0            3.2         -66.01          126.3          101.7
    0.2612              -23.89          38.44          27.56          65.05         -14.76           6.84         -137.0          3.202         -66.02          126.3          101.7
     0.285              -23.89          38.43          27.57          65.04         -14.76           6.84         -137.1          3.204         -66.04          126.3          101.7
    0.3087               -23.9          38.43          27.58          65.03         -14.76           6.84         -137.1          3.205         -66.05          126.3          101.7
    0.3324               -23.9          38.42          27.59          65.02         -14.75           6.84         -137.1          3.208         -66.07          126.2          101.7
    0.3562              -23.91          38.41           27.6           65.0         -14.75          6.839         -137.1           3.21         -66.09          126.2          101.8
    0.3799              -23.92          38.41          27.61          64.99         -14.74          6.839         -137.1          3.212         -66.11          126.2          101.8
    0.4037              -23.92           38.4          27.62          64.97         -14.74          6.838         -137.1          3.215         -66.13          126.1          101.8
    0.4274              -23.93          38.39          27.63          64.96         -14.73          6.838         -137.1          3.218         -66.15          126.1          101.8
    0.4512              -23.94          38.38          27.64          64.94         -14.73          6.838         -137.1          3.221         -66.18          126.1          101.9
    0.4749              -23.95          38.37          27.66          64.92         -14.72          6.837         -137.1          3.225          -66.2          126.0          101.9
    0.4987              -23.96          38.36          27.67           64.9         -14.71          6.837         -137.1          3.229         -66.24          126.0          101.9
    0.5224              -23.97          38.35          27.69          64.87          -14.7          6.836         -137.1          3.233         -66.27          125.9          102.0
    0.5462              -23.98          38.34          27.71          64.85         -14.69          6.835         -137.1          3.238         -66.31          125.8          102.0
    0.5699               -24.0          38.32          27.73          64.82         -14.68          6.835         -137.2          3.244         -66.35          125.8          102.1
    0.5937              -24.01          38.31          27.76          64.78         -14.67          6.834         -137.2           3.25          -66.4          125.7          102.1
    0.6174              -24.03          38.29          27.79          64.74         -14.66          6.833         -137.2          3.256         -66.45          125.6          102.2
    0.6411              -24.05          38.27          27.82           64.7         -14.64          6.832         -137.2          3.264         -66.51          125.5          102.3
    0.6649              -24.07          38.25          27.85          64.66         -14.63           6.83         -137.2          3.273         -66.57          125.4          102.3
    0.6886               -24.1          38.22          27.89           64.6         -14.61          6.829         -137.3          3.282         -66.65          125.3          102.4
    0.7124              -24.12          38.19          27.94          64.54         -14.58          6.828         -137.3          3.293         -66.74          125.1          102.5
    0.7361              -24.16          38.16          27.99          64.47         -14.56          6.826         -137.3          3.306         -66.84          125.0          102.6
    0.7599               -24.2          38.12          28.05          64.39         -14.53          6.824         -137.4          3.321         -66.95          124.8          102.8
    0.7836              -24.24          38.07          28.12          64.29          -14.5          6.821         -137.4          3.338         -67.08          124.5          102.9
    0.8074              -24.29          38.02           28.2          64.18         -14.46          6.819         -137.5          3.358         -67.24          124.3          103.1
    0.8311              -24.35          37.96           28.3          64.05         -14.41          6.815         -137.5          3.381         -67.42          124.0          103.3
    0.8549              -24.42          37.88          28.41          63.89         -14.36          6.812         -137.6          3.409         -67.64          123.6          103.6
    0.8786              -24.51          37.79          28.55          63.71         -14.29          6.807         -137.7          3.443          -67.9          123.2          103.9
    0.9024              -24.62          37.69          28.72          63.48         -14.21          6.801         -137.8          3.483         -68.22          122.7          104.2
    0.9261              -24.74          37.55          28.92          63.21         -14.11          6.794         -137.9          3.533         -68.61          122.0          104.7
    0.9498               -24.9          37.39          29.17          62.87         -13.99          6.786         -138.1          3.594         -69.08          121.2          105.2
    0.9736               -25.1          37.19          29.49          62.44         -13.84          6.775         -138.3          3.671         -69.68          120.2          105.9
    0.9973              -25.35          36.93          29.88          61.91         -13.66          6.762         -138.5          3.767         -70.43          119.0          106.8
     1.021              -25.66          36.61          30.38          61.23         -13.42          6.745         -138.8          3.889         -71.38          117.4          107.9
     1.045              -26.07          36.19          31.02          60.36         -13.11          6.723         -139.3          4.045          -72.6          115.3          109.3
     1.069              -26.59          35.65          31.85          59.24         -12.72          6.695         -139.8          4.246         -74.17          112.7          111.0
     1.092              -27.25          34.97           32.9          57.81         -12.21           6.66         -140.5          4.502         -76.17          109.4          113.3
     1.116              -28.09          34.11          34.22          56.02         -11.58          6.615         -141.3          4.825         -78.69          105.2          116.2
      1.14               -29.1          33.06          35.84          53.83         -10.81           6.56         -142.3          5.218         -81.75          100.1          119.8
     1.164              -30.28          31.85           37.7           51.3         -9.917          6.497         -143.5          5.673          -85.3          94.19          123.8
     1.187              -31.55          30.54          39.73          48.56          -8.95          6.429         -144.8          6.166         -89.15          87.78          128.2
     1.211              -32.83          29.22          41.75          45.81         -7.983           6.36         -146.1          6.659          -93.0          81.37          132.7
     1.235              -34.01          28.01          43.62          43.28          -7.09          6.297         -147.3          7.115         -96.55          75.45          136.7
     1.259              -35.02          26.96          45.23           41.1         -6.319          6.243         -148.3          7.507         -99.62          70.34          140.3
     1.282              -35.86           26.1          46.56           39.3         -5.687          6.198         -149.2           7.83         -102.1          66.15          143.1
     1.306              -36.52          25.42          47.61          37.88         -5.184          6.162         -149.9          8.086         -104.1          62.82          145.4
      1.33              -37.04          24.89          48.43          36.76          -4.79          6.134         -150.4          8.287         -105.7          60.21          147.2
     1.354              -37.44          24.47          49.07          35.89         -4.484          6.113         -150.8          8.443         -106.9          58.18          148.6
     1.377              -37.76          24.14          49.58          35.21         -4.244          6.096         -151.1          8.565         -107.9          56.59          149.7
     1.401              -38.01          23.89          49.97          34.67         -4.055          6.082         -151.4          8.662         -108.6          55.34          150.6
     1.425              -38.21          23.68          50.28          34.25         -3.906          6.072         -151.6          8.738         -109.2          54.35          151.3
     1.449              -38.36          23.52          50.53          33.91         -3.786          6.063         -151.7          8.799         -109.7          53.55          151.8
     1.472              -38.49          23.39          50.74          33.63         -3.688          6.056         -151.9          8.849         -110.1          52.91          152.3
     1.496               -38.6          23.28           50.9          33.41         -3.609          6.051         -152.0          8.889         -110.4          52.38          152.6
      1.52              -38.68          23.19          51.04          33.22         -3.543          6.046         -152.0          8.923         -110.7          51.94          152.9
